<svg width="100" height="100" viewBox="0 0 100 100" xmlns="http://www.w3.org/2000/svg">
  <!-- Simplified gradient -->
  <defs>
    <linearGradient id="cGradient" x1="15%" y1="15%" x2="85%" y2="85%">
      <stop offset="0%" stop-color="#10B981" />
      <stop offset="60%" stop-color="#059669" />
      <stop offset="100%" stop-color="#047857" />
    </linearGradient>
  </defs>
  
  <!-- No background rectangle, just using the circle -->
  
  <!-- Circle background with explicit opacity -->
  <circle cx="50" cy="50" r="45" fill="#059669" />
  <circle cx="50" cy="50" r="45" fill="url(#cGradient)" fill-opacity="1" />
  
  <!-- Subtle inner highlight -->
  <circle cx="50" cy="50" r="38" fill="none" stroke="#ffffff" stroke-opacity="0.15" stroke-width="2" />
  
  <!-- Professional C shape -->
  <path
    d="M67,35 A26,26 0 1,0 67,65"
    stroke="white"
    stroke-width="7"
    stroke-linecap="round"
    fill="none"
  />
  
  <!-- Refined cloud element -->
  <path
    d="M42,40 Q36,37 40,32 Q44,30 49,32 Q54,29 59,31 Q63,34 60,38 Q63,41 58,42 Q54,44 50,42 Q46,44 42,40 Z"
    fill="white"
    fill-opacity="0.9"
  />
  
  <!-- Subtle highlight -->
  <path
    d="M44,33 Q48,32 51,33"
    stroke="white"
    stroke-opacity="0.7"
    stroke-width="1"
    stroke-linecap="round"
    fill="none"
  />
</svg>